<svg width="32" height="32" viewBox="0 0 32 32" fill="none" xmlns="http://www.w3.org/2000/svg">
    <path d="M10.666 28H21.3327M15.9993 22.6667V28M9.06602 22.6667H22.9327C25.1729 22.6667 26.293 22.6667 27.1486 22.2307C27.9013 21.8472 28.5132 21.2353 28.8967 20.4826C29.3327 19.627 29.3327 18.5069 29.3327 16.2667V10.4C29.3327 8.15979 29.3327 7.03969 28.8967 6.18404C28.5132 5.43139 27.9013 4.81947 27.1486 4.43597C26.293 4 25.1729 4 22.9327 4H9.06602C6.82581 4 5.7057 4 4.85005 4.43597C4.09741 4.81947 3.48548 5.43139 3.10199 6.18404C2.66602 7.03969 2.66602 8.15979 2.66602 10.4V16.2667C2.66602 18.5069 2.66602 19.627 3.10199 20.4826C3.48548 21.2353 4.09741 21.8472 4.85005 22.2307C5.7057 22.6667 6.82581 22.6667 9.06602 22.6667Z" stroke="#D4DEE9" stroke-width="2" stroke-linecap="round" stroke-linejoin="round"/>
</svg>
